<svg width="800" height="560" viewBox="0 0 800 560" fill="none" xmlns="http://www.w3.org/2000/svg">
  <rect width="800" height="560" rx="32" fill="#FFF7EE"/>
  <circle cx="626" cy="126" r="88" fill="#FFD166" fill-opacity="0.55"/>
  <rect x="122" y="180" width="556" height="278" rx="32" fill="#14324B"/>
  <rect x="153" y="211" width="496" height="216" rx="22" fill="#F4F8FB"/>
  <rect x="286" y="130" width="228" height="62" rx="22" fill="#FF7B3D"/>
  <rect x="251" y="240" width="94" height="94" rx="18" fill="#54D2FF"/>
  <path d="M298 266V308" stroke="#F4F8FB" stroke-width="14" stroke-linecap="round"/>
  <path d="M277 287H319" stroke="#F4F8FB" stroke-width="14" stroke-linecap="round"/>
  <rect x="375" y="240" width="94" height="94" rx="18" fill="#7BE495"/>
  <path d="M399 286L417 304L447 269" stroke="#14324B" stroke-width="14" stroke-linecap="round" stroke-linejoin="round"/>
  <rect x="499" y="240" width="94" height="94" rx="18" fill="#FFD166"/>
  <path d="M526 260L564 316" stroke="#14324B" stroke-width="14" stroke-linecap="round"/>
  <path d="M564 260L526 316" stroke="#14324B" stroke-width="14" stroke-linecap="round"/>
  <rect x="224" y="360" width="369" height="28" rx="14" fill="#D7E8F5"/>
  <rect x="224" y="404" width="238" height="18" rx="9" fill="#D7E8F5"/>
</svg>
